<?xml version="1.0" encoding="UTF-8"?>
<svg xmlns="http://www.w3.org/2000/svg" xmlns:xlink="http://www.w3.org/1999/xlink" width="750pt" height="550pt" viewBox="0 0 750 550" version="1.1">
<defs>
<g>
<symbol overflow="visible" id="glyph0-0">
<path style="stroke:none;" d=""/>
</symbol>
<symbol overflow="visible" id="glyph0-1">
<path style="stroke:none;" d="M 3.96875 -10.21875 C 3.015625 -10.21875 2.140625 -9.796875 1.609375 -9.09375 C 0.953125 -8.203125 0.625 -6.828125 0.625 -4.9375 C 0.625 -1.5 1.765625 0.328125 3.96875 0.328125 C 6.125 0.328125 7.296875 -1.5 7.296875 -4.859375 C 7.296875 -6.84375 6.984375 -8.171875 6.3125 -9.09375 C 5.78125 -9.8125 4.921875 -10.21875 3.96875 -10.21875 Z M 3.96875 -9.09375 C 5.328125 -9.09375 6 -7.703125 6 -4.96875 C 6 -2.078125 5.34375 -0.71875 3.9375 -0.71875 C 2.59375 -0.71875 1.921875 -2.125 1.921875 -4.921875 C 1.921875 -7.71875 2.59375 -9.09375 3.96875 -9.09375 Z M 3.96875 -9.09375 "/>
</symbol>
<symbol overflow="visible" id="glyph0-2">
<path style="stroke:none;" d="M 7.296875 -1.25 L 1.921875 -1.25 C 2.046875 -2.09375 2.5 -2.625 3.765625 -3.359375 L 5.203125 -4.140625 C 6.625 -4.90625 7.359375 -5.96875 7.359375 -7.21875 C 7.359375 -8.0625 7.015625 -8.859375 6.40625 -9.40625 C 5.8125 -9.953125 5.0625 -10.21875 4.09375 -10.21875 C 2.796875 -10.21875 1.828125 -9.75 1.265625 -8.890625 C 0.90625 -8.34375 0.75 -7.703125 0.71875 -6.671875 L 1.984375 -6.671875 C 2.03125 -7.359375 2.125 -7.78125 2.296875 -8.109375 C 2.625 -8.734375 3.28125 -9.109375 4.046875 -9.109375 C 5.203125 -9.109375 6.0625 -8.28125 6.0625 -7.1875 C 6.0625 -6.375 5.59375 -5.6875 4.6875 -5.171875 L 3.359375 -4.421875 C 1.21875 -3.21875 0.609375 -2.25 0.484375 0 L 7.296875 0 Z M 7.296875 -1.25 "/>
</symbol>
<symbol overflow="visible" id="glyph0-3">
<path style="stroke:none;" d="M 4.703125 -2.453125 L 4.703125 0 L 5.984375 0 L 5.984375 -2.453125 L 7.484375 -2.453125 L 7.484375 -3.59375 L 5.984375 -3.59375 L 5.984375 -10.21875 L 5.046875 -10.21875 L 0.40625 -3.78125 L 0.40625 -2.453125 Z M 4.703125 -3.59375 L 1.515625 -3.59375 L 4.703125 -8.046875 Z M 4.703125 -3.59375 "/>
</symbol>
<symbol overflow="visible" id="glyph0-4">
<path style="stroke:none;" d="M 7.171875 -7.546875 C 6.921875 -9.21875 5.828125 -10.21875 4.28125 -10.21875 C 3.15625 -10.21875 2.140625 -9.671875 1.546875 -8.765625 C 0.90625 -7.765625 0.625 -6.515625 0.625 -4.65625 C 0.625 -2.9375 0.875 -1.84375 1.484375 -0.9375 C 2.03125 -0.109375 2.921875 0.328125 4.046875 0.328125 C 6 0.328125 7.390625 -1.109375 7.390625 -3.109375 C 7.390625 -5.015625 6.09375 -6.359375 4.265625 -6.359375 C 3.25 -6.359375 2.46875 -5.96875 1.921875 -5.21875 C 1.9375 -7.703125 2.734375 -9.09375 4.1875 -9.09375 C 5.078125 -9.09375 5.703125 -8.53125 5.90625 -7.546875 Z M 4.109375 -5.234375 C 5.328125 -5.234375 6.09375 -4.375 6.09375 -3.015625 C 6.09375 -1.734375 5.234375 -0.796875 4.0625 -0.796875 C 2.875 -0.796875 1.984375 -1.765625 1.984375 -3.078125 C 1.984375 -4.34375 2.859375 -5.234375 4.109375 -5.234375 Z M 4.109375 -5.234375 "/>
</symbol>
<symbol overflow="visible" id="glyph0-5">
<path style="stroke:none;" d="M 5.640625 -5.375 C 6.6875 -6 7.03125 -6.53125 7.03125 -7.484375 C 7.03125 -9.09375 5.78125 -10.21875 3.96875 -10.21875 C 2.15625 -10.21875 0.890625 -9.09375 0.890625 -7.484375 C 0.890625 -6.546875 1.234375 -6.015625 2.28125 -5.375 C 1.109375 -4.8125 0.53125 -3.96875 0.53125 -2.84375 C 0.53125 -0.96875 1.9375 0.328125 3.96875 0.328125 C 5.984375 0.328125 7.390625 -0.96875 7.390625 -2.828125 C 7.390625 -3.96875 6.8125 -4.8125 5.640625 -5.375 Z M 3.96875 -9.09375 C 5.046875 -9.09375 5.734375 -8.453125 5.734375 -7.46875 C 5.734375 -6.515625 5.03125 -5.875 3.96875 -5.875 C 2.890625 -5.875 2.1875 -6.515625 2.1875 -7.484375 C 2.1875 -8.453125 2.890625 -9.09375 3.96875 -9.09375 Z M 3.96875 -4.8125 C 5.234375 -4.8125 6.09375 -4 6.09375 -2.8125 C 6.09375 -1.59375 5.234375 -0.796875 3.9375 -0.796875 C 2.6875 -0.796875 1.828125 -1.609375 1.828125 -2.8125 C 1.828125 -4 2.6875 -4.8125 3.96875 -4.8125 Z M 3.96875 -4.8125 "/>
</symbol>
<symbol overflow="visible" id="glyph0-6">
<path style="stroke:none;" d="M 8.59375 -7.421875 C 8.578125 -9.484375 7.15625 -10.671875 4.734375 -10.671875 C 2.4375 -10.671875 1.015625 -9.5 1.015625 -7.59375 C 1.015625 -6.3125 1.6875 -5.5 3.0625 -5.140625 L 5.671875 -4.453125 C 7 -4.109375 7.609375 -3.578125 7.609375 -2.75 C 7.609375 -2.1875 7.296875 -1.609375 6.859375 -1.296875 C 6.4375 -1.015625 5.78125 -0.84375 4.921875 -0.84375 C 3.78125 -0.84375 3.015625 -1.125 2.5 -1.734375 C 2.125 -2.1875 1.9375 -2.6875 1.953125 -3.34375 L 0.6875 -3.34375 C 0.703125 -2.375 0.890625 -1.75 1.3125 -1.171875 C 2.03125 -0.1875 3.234375 0.328125 4.84375 0.328125 C 6.09375 0.328125 7.109375 0.046875 7.796875 -0.46875 C 8.5 -1.03125 8.953125 -1.96875 8.953125 -2.875 C 8.953125 -4.171875 8.140625 -5.125 6.71875 -5.515625 L 4.078125 -6.21875 C 2.8125 -6.5625 2.34375 -6.96875 2.34375 -7.78125 C 2.34375 -8.84375 3.28125 -9.546875 4.703125 -9.546875 C 6.375 -9.546875 7.296875 -8.78125 7.3125 -7.421875 Z M 8.59375 -7.421875 "/>
</symbol>
<symbol overflow="visible" id="glyph0-7">
<path style="stroke:none;" d="M 7.390625 -3.375 C 7.390625 -4.53125 7.296875 -5.21875 7.09375 -5.78125 C 6.59375 -7.015625 5.453125 -7.765625 4.03125 -7.765625 C 1.9375 -7.765625 0.578125 -6.15625 0.578125 -3.671875 C 0.578125 -1.203125 1.890625 0.328125 4 0.328125 C 5.734375 0.328125 6.921875 -0.640625 7.234375 -2.296875 L 6.015625 -2.296875 C 5.6875 -1.296875 5.015625 -0.78125 4.046875 -0.78125 C 3.28125 -0.78125 2.640625 -1.125 2.234375 -1.75 C 1.9375 -2.1875 1.84375 -2.625 1.828125 -3.375 Z M 1.859375 -4.34375 C 1.953125 -5.75 2.8125 -6.65625 4.015625 -6.65625 C 5.203125 -6.65625 6.109375 -5.671875 6.109375 -4.4375 C 6.109375 -4.40625 6.109375 -4.375 6.09375 -4.34375 Z M 1.859375 -4.34375 "/>
</symbol>
<symbol overflow="visible" id="glyph0-8">
<path style="stroke:none;" d="M 3.65625 -7.546875 L 2.421875 -7.546875 L 2.421875 -9.625 L 1.21875 -9.625 L 1.21875 -7.546875 L 0.203125 -7.546875 L 0.203125 -6.5625 L 1.21875 -6.5625 L 1.21875 -0.859375 C 1.21875 -0.09375 1.75 0.328125 2.671875 0.328125 C 2.96875 0.328125 3.25 0.296875 3.65625 0.234375 L 3.65625 -0.78125 C 3.5 -0.734375 3.3125 -0.71875 3.078125 -0.71875 C 2.5625 -0.71875 2.421875 -0.859375 2.421875 -1.390625 L 2.421875 -6.5625 L 3.65625 -6.5625 Z M 3.65625 -7.546875 "/>
</symbol>
<symbol overflow="visible" id="glyph0-9">
<path style="stroke:none;" d="M 3.921875 -7.765625 C 1.796875 -7.765625 0.515625 -6.25 0.515625 -3.71875 C 0.515625 -1.1875 1.78125 0.328125 3.9375 0.328125 C 6.046875 0.328125 7.34375 -1.1875 7.34375 -3.65625 C 7.34375 -6.265625 6.09375 -7.765625 3.921875 -7.765625 Z M 3.9375 -6.65625 C 5.28125 -6.65625 6.09375 -5.546875 6.09375 -3.671875 C 6.09375 -1.90625 5.265625 -0.78125 3.9375 -0.78125 C 2.59375 -0.78125 1.765625 -1.890625 1.765625 -3.71875 C 1.765625 -5.53125 2.59375 -6.65625 3.9375 -6.65625 Z M 3.9375 -6.65625 "/>
</symbol>
<symbol overflow="visible" id="glyph0-10">
<path style="stroke:none;" d="M 6.3125 -5.453125 C 6.296875 -6.921875 5.3125 -7.765625 3.578125 -7.765625 C 1.8125 -7.765625 0.671875 -6.859375 0.671875 -5.453125 C 0.671875 -4.28125 1.28125 -3.71875 3.0625 -3.28125 L 4.1875 -3.015625 C 5.03125 -2.8125 5.359375 -2.5 5.359375 -1.953125 C 5.359375 -1.25 4.65625 -0.78125 3.59375 -0.78125 C 2.953125 -0.78125 2.40625 -0.96875 2.109375 -1.28125 C 1.921875 -1.5 1.828125 -1.71875 1.75 -2.25 L 0.484375 -2.25 C 0.546875 -0.5 1.53125 0.328125 3.5 0.328125 C 5.40625 0.328125 6.609375 -0.609375 6.609375 -2.0625 C 6.609375 -3.1875 5.984375 -3.796875 4.484375 -4.15625 L 3.328125 -4.4375 C 2.34375 -4.671875 1.9375 -4.984375 1.9375 -5.515625 C 1.9375 -6.203125 2.546875 -6.65625 3.53125 -6.65625 C 4.5 -6.65625 5.015625 -6.234375 5.046875 -5.453125 Z M 6.3125 -5.453125 "/>
</symbol>
<symbol overflow="visible" id="glyph0-11">
<path style="stroke:none;" d="M 7.703125 -0.703125 C 7.578125 -0.671875 7.515625 -0.671875 7.453125 -0.671875 C 7.03125 -0.671875 6.796875 -0.890625 6.796875 -1.265625 L 6.796875 -5.703125 C 6.796875 -7.046875 5.8125 -7.765625 3.96875 -7.765625 C 2.859375 -7.765625 1.953125 -7.453125 1.453125 -6.890625 C 1.109375 -6.5 0.96875 -6.0625 0.9375 -5.3125 L 2.140625 -5.3125 C 2.25 -6.234375 2.796875 -6.65625 3.921875 -6.65625 C 5 -6.65625 5.609375 -6.25 5.609375 -5.53125 L 5.609375 -5.21875 C 5.609375 -4.703125 5.296875 -4.5 4.34375 -4.375 C 2.65625 -4.15625 2.390625 -4.109375 1.9375 -3.921875 C 1.046875 -3.5625 0.609375 -2.875 0.609375 -1.90625 C 0.609375 -0.53125 1.5625 0.328125 3.078125 0.328125 C 4.03125 0.328125 4.796875 0 5.640625 -0.78125 C 5.734375 -0.015625 6.109375 0.328125 6.890625 0.328125 C 7.125 0.328125 7.3125 0.296875 7.703125 0.203125 Z M 5.609375 -2.375 C 5.609375 -1.96875 5.484375 -1.734375 5.125 -1.390625 C 4.640625 -0.953125 4.046875 -0.71875 3.34375 -0.71875 C 2.40625 -0.71875 1.859375 -1.171875 1.859375 -1.9375 C 1.859375 -2.71875 2.390625 -3.125 3.671875 -3.3125 C 4.9375 -3.484375 5.203125 -3.546875 5.609375 -3.734375 Z M 5.609375 -2.375 "/>
</symbol>
<symbol overflow="visible" id="glyph0-12">
<path style="stroke:none;" d="M 8.328125 1.8125 L -0.3125 1.8125 L -0.3125 2.53125 L 8.328125 2.53125 Z M 8.328125 1.8125 "/>
</symbol>
<symbol overflow="visible" id="glyph0-13">
<path style="stroke:none;" d="M 2.65625 -4.453125 L 5.953125 -4.453125 C 6.765625 -4.453125 7.421875 -4.703125 7.984375 -5.203125 C 8.609375 -5.78125 8.890625 -6.453125 8.890625 -7.421875 C 8.890625 -9.390625 7.71875 -10.5 5.640625 -10.5 L 1.3125 -10.5 L 1.3125 0 L 2.65625 0 Z M 2.65625 -5.640625 L 2.65625 -9.328125 L 5.453125 -9.328125 C 6.734375 -9.328125 7.484375 -8.625 7.484375 -7.484375 C 7.484375 -6.328125 6.734375 -5.640625 5.453125 -5.640625 Z M 2.65625 -5.640625 "/>
</symbol>
<symbol overflow="visible" id="glyph0-14">
<path style="stroke:none;" d="M 2.1875 -10.5 L 0.984375 -10.5 L 0.984375 0 L 2.1875 0 Z M 2.1875 -10.5 "/>
</symbol>
<symbol overflow="visible" id="glyph0-15">
<path style="stroke:none;" d="M 2.75 -1.5 L 1.25 -1.5 L 1.25 0 L 2.75 0 Z M 2.75 -1.5 "/>
</symbol>
<symbol overflow="visible" id="glyph0-16">
<path style="stroke:none;" d="M 2.5 -10.5 L 1.15625 -10.5 L 1.15625 0 L 7.671875 0 L 7.671875 -1.1875 L 2.5 -1.1875 Z M 2.5 -10.5 "/>
</symbol>
<symbol overflow="visible" id="glyph0-17">
<path style="stroke:none;" d="M 1.015625 -7.546875 L 1.015625 0 L 2.21875 0 L 2.21875 -4.15625 C 2.21875 -5.703125 3.03125 -6.71875 4.265625 -6.71875 C 5.21875 -6.71875 5.8125 -6.140625 5.8125 -5.234375 L 5.8125 0 L 7.015625 0 L 7.015625 -5.703125 C 7.015625 -6.953125 6.078125 -7.765625 4.625 -7.765625 C 3.5 -7.765625 2.78125 -7.328125 2.125 -6.28125 L 2.125 -7.546875 Z M 1.015625 -7.546875 "/>
</symbol>
<symbol overflow="visible" id="glyph0-18">
<path style="stroke:none;" d="M 5.9375 -7.546875 L 5.9375 -6.453125 C 5.328125 -7.34375 4.59375 -7.765625 3.625 -7.765625 C 1.71875 -7.765625 0.421875 -6.09375 0.421875 -3.640625 C 0.421875 -2.40625 0.75 -1.390625 1.375 -0.671875 C 1.9375 -0.046875 2.734375 0.328125 3.53125 0.328125 C 4.484375 0.328125 5.140625 -0.078125 5.8125 -1.015625 L 5.8125 -0.640625 C 5.8125 0.390625 5.6875 1.015625 5.390625 1.421875 C 5.078125 1.875 4.453125 2.125 3.71875 2.125 C 3.171875 2.125 2.671875 1.984375 2.34375 1.734375 C 2.078125 1.515625 1.953125 1.3125 1.890625 0.859375 L 0.65625 0.859375 C 0.796875 2.296875 1.90625 3.140625 3.671875 3.140625 C 4.796875 3.140625 5.765625 2.78125 6.25 2.171875 C 6.828125 1.484375 7.046875 0.53125 7.046875 -1.234375 L 7.046875 -7.546875 Z M 3.765625 -6.65625 C 5.0625 -6.65625 5.8125 -5.5625 5.8125 -3.671875 C 5.8125 -1.875 5.046875 -0.78125 3.78125 -0.78125 C 2.46875 -0.78125 1.671875 -1.890625 1.671875 -3.71875 C 1.671875 -5.53125 2.484375 -6.65625 3.765625 -6.65625 Z M 3.765625 -6.65625 "/>
</symbol>
<symbol overflow="visible" id="glyph0-19">
<path style="stroke:none;" d="M 1.015625 -10.5 L 1.015625 0 L 2.203125 0 L 2.203125 -4.15625 C 2.203125 -5.703125 3.015625 -6.71875 4.25 -6.71875 C 4.640625 -6.71875 5.03125 -6.578125 5.3125 -6.375 C 5.65625 -6.125 5.8125 -5.765625 5.8125 -5.234375 L 5.8125 0 L 7 0 L 7 -5.703125 C 7 -6.96875 6.09375 -7.765625 4.625 -7.765625 C 3.5625 -7.765625 2.90625 -7.4375 2.203125 -6.515625 L 2.203125 -10.5 Z M 1.015625 -10.5 "/>
</symbol>
<symbol overflow="visible" id="glyph0-20">
<path style="stroke:none;" d="M 5.640625 0 L 9.296875 -10.5 L 7.859375 -10.5 L 4.953125 -1.609375 L 1.875 -10.5 L 0.4375 -10.5 L 4.203125 0 Z M 5.640625 0 "/>
</symbol>
<symbol overflow="visible" id="glyph0-21">
<path style="stroke:none;" d="M 1 -7.546875 L 1 0 L 2.203125 0 L 2.203125 -3.921875 C 2.203125 -5 2.484375 -5.703125 3.046875 -6.125 C 3.421875 -6.390625 3.78125 -6.484375 4.625 -6.5 L 4.625 -7.71875 C 4.421875 -7.75 4.328125 -7.765625 4.15625 -7.765625 C 3.390625 -7.765625 2.796875 -7.296875 2.109375 -6.1875 L 2.109375 -7.546875 Z M 1 -7.546875 "/>
</symbol>
<symbol overflow="visible" id="glyph0-22">
<path style="stroke:none;" d="M 2.15625 -7.546875 L 0.96875 -7.546875 L 0.96875 0 L 2.15625 0 Z M 2.15625 -10.5 L 0.953125 -10.5 L 0.953125 -8.984375 L 2.15625 -8.984375 Z M 2.15625 -10.5 "/>
</symbol>
<symbol overflow="visible" id="glyph0-23">
<path style="stroke:none;" d="M 6.78125 -5.015625 C 6.734375 -5.75 6.5625 -6.21875 6.28125 -6.640625 C 5.765625 -7.34375 4.859375 -7.765625 3.796875 -7.765625 C 1.765625 -7.765625 0.453125 -6.15625 0.453125 -3.640625 C 0.453125 -1.203125 1.75 0.328125 3.78125 0.328125 C 5.59375 0.328125 6.734375 -0.75 6.875 -2.59375 L 5.65625 -2.59375 C 5.453125 -1.390625 4.84375 -0.78125 3.8125 -0.78125 C 2.5 -0.78125 1.703125 -1.859375 1.703125 -3.640625 C 1.703125 -5.53125 2.484375 -6.65625 3.78125 -6.65625 C 4.796875 -6.65625 5.4375 -6.0625 5.578125 -5.015625 Z M 6.78125 -5.015625 "/>
</symbol>
</g>
</defs>
<g id="surface132840">
<rect x="0" y="0" width="750" height="550" style="fill:rgb(100%,100%,100%);fill-opacity:1;stroke:none;"/>
<path style="fill:none;stroke-width:0.75;stroke-linecap:round;stroke-linejoin:round;stroke:rgb(0%,0%,0%);stroke-opacity:1;stroke-miterlimit:10;" d="M 159.839844 364.03125 L 159.839844 67.058594 "/>
<path style="fill:none;stroke-width:0.75;stroke-linecap:round;stroke-linejoin:round;stroke:rgb(0%,0%,0%);stroke-opacity:1;stroke-miterlimit:10;" d="M 159.839844 364.03125 L 152.640625 364.03125 "/>
<path style="fill:none;stroke-width:0.75;stroke-linecap:round;stroke-linejoin:round;stroke:rgb(0%,0%,0%);stroke-opacity:1;stroke-miterlimit:10;" d="M 159.839844 289.785156 L 152.640625 289.785156 "/>
<path style="fill:none;stroke-width:0.75;stroke-linecap:round;stroke-linejoin:round;stroke:rgb(0%,0%,0%);stroke-opacity:1;stroke-miterlimit:10;" d="M 159.839844 215.542969 L 152.640625 215.542969 "/>
<path style="fill:none;stroke-width:0.75;stroke-linecap:round;stroke-linejoin:round;stroke:rgb(0%,0%,0%);stroke-opacity:1;stroke-miterlimit:10;" d="M 159.839844 141.300781 L 152.640625 141.300781 "/>
<path style="fill:none;stroke-width:0.75;stroke-linecap:round;stroke-linejoin:round;stroke:rgb(0%,0%,0%);stroke-opacity:1;stroke-miterlimit:10;" d="M 159.839844 67.058594 L 152.640625 67.058594 "/>
<g style="fill:rgb(0%,0%,0%);fill-opacity:1;">
  <use xlink:href="#glyph0-1" x="136.441406" y="369.253906"/>
</g>
<g style="fill:rgb(0%,0%,0%);fill-opacity:1;">
  <use xlink:href="#glyph0-2" x="136.441406" y="295.007812"/>
</g>
<g style="fill:rgb(0%,0%,0%);fill-opacity:1;">
  <use xlink:href="#glyph0-3" x="136.441406" y="220.765625"/>
</g>
<g style="fill:rgb(0%,0%,0%);fill-opacity:1;">
  <use xlink:href="#glyph0-4" x="136.441406" y="146.523438"/>
</g>
<g style="fill:rgb(0%,0%,0%);fill-opacity:1;">
  <use xlink:href="#glyph0-5" x="136.441406" y="72.28125"/>
</g>
<path style="fill:none;stroke-width:0.75;stroke-linecap:round;stroke-linejoin:round;stroke:rgb(0%,0%,0%);stroke-opacity:1;stroke-miterlimit:10;" d="M 159.839844 375.761719 L 719.761719 375.761719 L 719.761719 59.039062 L 159.839844 59.039062 L 159.839844 375.761719 "/>
<path style="fill-rule:nonzero;fill:rgb(67.843137%,84.705882%,90.196078%);fill-opacity:1;stroke-width:0.75;stroke-linecap:round;stroke-linejoin:round;stroke:rgb(74.509804%,74.509804%,74.509804%);stroke-opacity:1;stroke-miterlimit:10;" d="M 262.441406 326.910156 L 262.167969 326.570312 L 261.894531 326.234375 L 261.621094 325.894531 L 261.34375 325.558594 L 261.058594 325.222656 L 260.761719 324.882812 L 260.441406 324.546875 L 260.097656 324.207031 L 259.71875 323.871094 L 259.296875 323.535156 L 258.824219 323.195312 L 258.292969 322.859375 L 257.695312 322.519531 L 257.019531 322.183594 L 256.261719 321.847656 L 255.40625 321.507812 L 254.453125 321.171875 L 253.390625 320.832031 L 252.214844 320.496094 L 250.921875 320.160156 L 249.503906 319.820312 L 247.96875 319.484375 L 246.308594 319.144531 L 244.527344 318.808594 L 242.628906 318.472656 L 240.621094 318.132812 L 238.511719 317.796875 L 236.308594 317.460938 L 234.023438 317.121094 L 231.667969 316.785156 L 229.261719 316.445312 L 226.8125 316.109375 L 224.34375 315.773438 L 221.875 315.433594 L 219.421875 315.097656 L 217.003906 314.757812 L 214.648438 314.421875 L 212.371094 314.085938 L 210.191406 313.746094 L 208.136719 313.410156 L 206.21875 313.070312 L 204.464844 312.734375 L 202.886719 312.398438 L 201.503906 312.058594 L 200.328125 311.722656 L 199.371094 311.382812 L 198.636719 311.046875 L 198.140625 310.710938 L 197.878906 310.371094 L 197.859375 310.035156 L 198.074219 309.699219 L 198.523438 309.359375 L 199.199219 309.023438 L 200.089844 308.683594 L 201.1875 308.347656 L 202.476562 308.011719 L 203.9375 307.671875 L 205.558594 307.335938 L 207.3125 306.996094 L 209.1875 306.660156 L 211.15625 306.324219 L 213.199219 305.984375 L 215.296875 305.648438 L 217.429688 305.308594 L 219.585938 304.972656 L 221.746094 304.636719 L 223.898438 304.296875 L 226.035156 303.960938 L 228.144531 303.621094 L 230.222656 303.285156 L 232.261719 302.949219 L 234.265625 302.609375 L 236.226562 302.273438 L 238.140625 301.9375 L 240.007812 301.597656 L 241.824219 301.261719 L 243.585938 300.921875 L 245.289062 300.585938 L 246.925781 300.25 L 248.492188 299.910156 L 249.972656 299.574219 L 251.367188 299.234375 L 252.664062 298.898438 L 253.851562 298.5625 L 254.933594 298.222656 L 255.898438 297.886719 L 256.75 297.546875 L 257.480469 297.210938 L 258.105469 296.875 L 258.621094 296.535156 L 259.042969 296.199219 L 259.386719 295.859375 L 259.65625 295.523438 L 259.875 295.1875 L 260.054688 294.847656 L 260.214844 294.511719 L 260.363281 294.175781 L 260.519531 293.835938 L 260.695312 293.5 L 273.277344 293.5 L 273.449219 293.835938 L 273.605469 294.175781 L 273.757812 294.511719 L 273.914062 294.847656 L 274.097656 295.1875 L 274.3125 295.523438 L 274.585938 295.859375 L 274.925781 296.199219 L 275.347656 296.535156 L 275.867188 296.875 L 276.488281 297.210938 L 277.222656 297.546875 L 278.070312 297.886719 L 279.035156 298.222656 L 280.117188 298.5625 L 281.308594 298.898438 L 282.605469 299.234375 L 283.996094 299.574219 L 285.480469 299.910156 L 287.042969 300.25 L 288.679688 300.585938 L 290.382812 300.921875 L 292.144531 301.261719 L 293.960938 301.597656 L 295.832031 301.9375 L 297.746094 302.273438 L 299.707031 302.609375 L 301.707031 302.949219 L 303.75 303.285156 L 305.828125 303.621094 L 307.9375 303.960938 L 310.070312 304.296875 L 312.222656 304.636719 L 314.382812 304.972656 L 316.539062 305.308594 L 318.675781 305.648438 L 320.773438 305.984375 L 322.816406 306.324219 L 324.785156 306.660156 L 326.65625 306.996094 L 328.414062 307.335938 L 330.03125 307.671875 L 331.496094 308.011719 L 332.78125 308.347656 L 333.878906 308.683594 L 334.773438 309.023438 L 335.445312 309.359375 L 335.894531 309.699219 L 336.109375 310.035156 L 336.089844 310.371094 L 335.828125 310.710938 L 335.332031 311.046875 L 334.601562 311.382812 L 333.640625 311.722656 L 332.464844 312.058594 L 331.082031 312.398438 L 329.503906 312.734375 L 327.75 313.070312 L 325.835938 313.410156 L 323.777344 313.746094 L 321.601562 314.085938 L 319.324219 314.421875 L 316.964844 314.757812 L 314.546875 315.097656 L 312.09375 315.433594 L 309.625 315.773438 L 307.15625 316.109375 L 304.710938 316.445312 L 302.300781 316.785156 L 299.945312 317.121094 L 297.660156 317.460938 L 295.457031 317.796875 L 293.347656 318.132812 L 291.339844 318.472656 L 289.441406 318.808594 L 287.664062 319.144531 L 286.003906 319.484375 L 284.464844 319.820312 L 283.050781 320.160156 L 281.757812 320.496094 L 280.582031 320.832031 L 279.519531 321.171875 L 278.5625 321.507812 L 277.710938 321.847656 L 276.949219 322.183594 L 276.273438 322.519531 L 275.675781 322.859375 L 275.144531 323.195312 L 274.675781 323.535156 L 274.253906 323.871094 L 273.875 324.207031 L 273.527344 324.546875 L 273.210938 324.882812 L 272.910156 325.222656 L 272.625 325.558594 L 272.347656 325.894531 L 272.074219 326.234375 L 271.800781 326.570312 L 271.527344 326.910156 Z M 262.441406 326.910156 "/>
<path style="fill:none;stroke-width:0.75;stroke-linecap:round;stroke-linejoin:round;stroke:rgb(0%,0%,0%);stroke-opacity:1;stroke-miterlimit:10;" d="M 266.984375 321.804688 L 266.984375 295.820312 "/>
<path style="fill-rule:nonzero;fill:rgb(0%,0%,0%);fill-opacity:1;stroke-width:0.75;stroke-linecap:round;stroke-linejoin:round;stroke:rgb(0%,0%,0%);stroke-opacity:1;stroke-miterlimit:10;" d="M 262.664062 312.058594 L 271.304688 312.058594 L 271.304688 305.5625 L 262.664062 305.5625 Z M 262.664062 312.058594 "/>
<path style="fill-rule:nonzero;fill:rgb(100%,100%,100%);fill-opacity:1;stroke-width:0.75;stroke-linecap:round;stroke-linejoin:round;stroke:rgb(100%,100%,100%);stroke-opacity:1;stroke-miterlimit:10;" d="M 269.683594 308.347656 C 269.683594 311.949219 264.285156 311.949219 264.285156 308.347656 C 264.285156 304.746094 269.683594 304.746094 269.683594 308.347656 "/>
<path style="fill-rule:nonzero;fill:rgb(82.745098%,82.745098%,82.745098%);fill-opacity:1;stroke-width:0.75;stroke-linecap:round;stroke-linejoin:round;stroke:rgb(74.509804%,74.509804%,74.509804%);stroke-opacity:1;stroke-miterlimit:10;" d="M 433.457031 252.664062 L 432.984375 251.878906 L 432.492188 251.089844 L 431.988281 250.304688 L 431.46875 249.515625 L 430.929688 248.726562 L 430.378906 247.941406 L 429.816406 247.152344 L 429.238281 246.367188 L 428.648438 245.578125 L 428.050781 244.792969 L 427.445312 244.003906 L 426.832031 243.214844 L 426.214844 242.429688 L 425.59375 241.640625 L 424.964844 240.855469 L 424.339844 240.066406 L 423.707031 239.277344 L 423.066406 238.492188 L 422.421875 237.703125 L 421.765625 236.917969 L 421.09375 236.128906 L 420.398438 235.34375 L 419.675781 234.554688 L 418.921875 233.765625 L 418.125 232.980469 L 417.277344 232.191406 L 416.375 231.40625 L 415.40625 230.617188 L 414.371094 229.828125 L 413.261719 229.042969 L 412.074219 228.253906 L 410.808594 227.46875 L 409.460938 226.679688 L 408.039062 225.894531 L 406.546875 225.105469 L 404.996094 224.316406 L 403.386719 223.53125 L 401.738281 222.742188 L 400.058594 221.957031 L 398.363281 221.167969 L 396.671875 220.382812 L 394.992188 219.59375 L 393.34375 218.804688 L 391.734375 218.019531 L 390.179688 217.230469 L 388.6875 216.445312 L 387.265625 215.65625 L 385.914062 214.867188 L 384.640625 214.082031 L 383.445312 213.292969 L 382.320312 212.507812 L 381.261719 211.71875 L 380.265625 210.933594 L 379.324219 210.144531 L 378.429688 209.355469 L 377.578125 208.570312 L 376.761719 207.78125 L 375.976562 206.996094 L 375.21875 206.207031 L 374.496094 205.417969 L 373.804688 204.632812 L 373.152344 203.84375 L 372.550781 203.058594 L 372.007812 202.269531 L 371.535156 201.484375 L 371.152344 200.695312 L 370.871094 199.90625 L 370.707031 199.121094 L 370.675781 198.332031 L 370.789062 197.546875 L 371.0625 196.757812 L 371.503906 195.972656 L 372.121094 195.183594 L 372.921875 194.394531 L 373.902344 193.609375 L 375.066406 192.820312 L 376.40625 192.035156 L 377.910156 191.246094 L 379.574219 190.457031 L 381.386719 189.671875 L 383.324219 188.882812 L 385.378906 188.097656 L 387.53125 187.308594 L 389.757812 186.523438 L 392.050781 185.734375 L 394.382812 184.945312 L 396.746094 184.160156 L 399.113281 183.371094 L 401.476562 182.585938 L 403.820312 181.796875 L 406.125 181.007812 L 408.390625 180.222656 L 410.597656 179.433594 L 412.738281 178.648438 L 414.808594 177.859375 L 416.800781 177.074219 L 418.710938 176.285156 L 420.53125 175.496094 L 422.257812 174.710938 L 457.339844 174.710938 L 459.070312 175.496094 L 460.890625 176.285156 L 462.796875 177.074219 L 464.789062 177.859375 L 466.859375 178.648438 L 469.003906 179.433594 L 471.210938 180.222656 L 473.472656 181.007812 L 475.78125 181.796875 L 478.125 182.585938 L 480.488281 183.371094 L 482.855469 184.160156 L 485.214844 184.945312 L 487.550781 185.734375 L 489.839844 186.523438 L 492.070312 187.308594 L 494.222656 188.097656 L 496.273438 188.882812 L 498.214844 189.671875 L 500.023438 190.457031 L 501.6875 191.246094 L 503.195312 192.035156 L 504.535156 192.820312 L 505.695312 193.609375 L 506.679688 194.394531 L 507.476562 195.183594 L 508.097656 195.972656 L 508.539062 196.757812 L 508.8125 197.546875 L 508.925781 198.332031 L 508.894531 199.121094 L 508.730469 199.90625 L 508.449219 200.695312 L 508.0625 201.484375 L 507.59375 202.269531 L 507.050781 203.058594 L 506.445312 203.84375 L 505.796875 204.632812 L 505.105469 205.417969 L 504.378906 206.207031 L 503.625 206.996094 L 502.839844 207.78125 L 502.023438 208.570312 L 501.167969 209.355469 L 500.277344 210.144531 L 499.335938 210.933594 L 498.339844 211.71875 L 497.28125 212.507812 L 496.15625 213.292969 L 494.957031 214.082031 L 493.683594 214.867188 L 492.335938 215.65625 L 490.914062 216.445312 L 489.417969 217.230469 L 487.863281 218.019531 L 486.257812 218.804688 L 484.605469 219.59375 L 482.929688 220.382812 L 481.234375 221.167969 L 479.542969 221.957031 L 477.863281 222.742188 L 476.214844 223.53125 L 474.605469 224.316406 L 473.050781 225.105469 L 471.558594 225.894531 L 470.140625 226.679688 L 468.792969 227.46875 L 467.527344 228.253906 L 466.339844 229.042969 L 465.226562 229.828125 L 464.191406 230.617188 L 463.226562 231.40625 L 462.324219 232.191406 L 461.476562 232.980469 L 460.679688 233.765625 L 459.921875 234.554688 L 459.203125 235.34375 L 458.507812 236.128906 L 457.835938 236.917969 L 457.179688 237.703125 L 456.53125 238.492188 L 455.894531 239.277344 L 455.261719 240.066406 L 454.632812 240.855469 L 454.007812 241.640625 L 453.386719 242.429688 L 452.769531 243.214844 L 452.15625 244.003906 L 451.550781 244.792969 L 450.953125 245.578125 L 450.363281 246.367188 L 449.785156 247.152344 L 449.21875 247.941406 L 448.667969 248.726562 L 448.132812 249.515625 L 447.613281 250.304688 L 447.105469 251.089844 L 446.617188 251.878906 L 446.144531 252.664062 Z M 433.457031 252.664062 "/>
<path style="fill:none;stroke-width:0.75;stroke-linecap:round;stroke-linejoin:round;stroke:rgb(0%,0%,0%);stroke-opacity:1;stroke-miterlimit:10;" d="M 439.800781 248.953125 L 439.800781 174.710938 "/>
<path style="fill-rule:nonzero;fill:rgb(0%,0%,0%);fill-opacity:1;stroke-width:0.75;stroke-linecap:round;stroke-linejoin:round;stroke:rgb(0%,0%,0%);stroke-opacity:1;stroke-miterlimit:10;" d="M 435.480469 215.542969 L 444.121094 215.542969 L 444.121094 193.269531 L 435.480469 193.269531 Z M 435.480469 215.542969 "/>
<path style="fill-rule:nonzero;fill:rgb(100%,100%,100%);fill-opacity:1;stroke-width:0.75;stroke-linecap:round;stroke-linejoin:round;stroke:rgb(100%,100%,100%);stroke-opacity:1;stroke-miterlimit:10;" d="M 442.5 202.550781 C 442.5 206.152344 437.101562 206.152344 437.101562 202.550781 C 437.101562 198.953125 442.5 198.953125 442.5 202.550781 "/>
<path style="fill-rule:nonzero;fill:rgb(69.019608%,18.823529%,37.647059%);fill-opacity:1;stroke-width:0.75;stroke-linecap:round;stroke-linejoin:round;stroke:rgb(74.509804%,74.509804%,74.509804%);stroke-opacity:1;stroke-miterlimit:10;" d="M 598.894531 196.984375 L 597.304688 196.082031 L 595.585938 195.183594 L 593.742188 194.285156 L 591.765625 193.382812 L 589.667969 192.484375 L 587.453125 191.582031 L 585.132812 190.683594 L 582.71875 189.785156 L 580.230469 188.882812 L 577.679688 187.984375 L 575.09375 187.085938 L 572.488281 186.183594 L 569.898438 185.285156 L 567.339844 184.382812 L 564.839844 183.484375 L 562.425781 182.585938 L 560.121094 181.683594 L 557.945312 180.785156 L 555.914062 179.886719 L 554.042969 178.984375 L 552.347656 178.085938 L 550.828125 177.183594 L 549.492188 176.285156 L 548.332031 175.386719 L 547.339844 174.484375 L 546.511719 173.585938 L 545.832031 172.6875 L 545.28125 171.785156 L 544.84375 170.886719 L 544.503906 169.984375 L 544.242188 169.085938 L 544.039062 168.1875 L 543.882812 167.285156 L 543.765625 166.386719 L 543.667969 165.484375 L 543.59375 164.585938 L 543.539062 163.6875 L 543.5 162.785156 L 543.488281 161.886719 L 543.507812 160.988281 L 543.570312 160.085938 L 543.683594 159.1875 L 543.859375 158.285156 L 544.117188 157.386719 L 544.464844 156.488281 L 544.914062 155.585938 L 545.472656 154.6875 L 546.148438 153.789062 L 546.945312 152.886719 L 547.871094 151.988281 L 548.914062 151.085938 L 550.082031 150.1875 L 551.367188 149.289062 L 552.757812 148.386719 L 554.25 147.488281 L 555.828125 146.589844 L 557.484375 145.6875 L 559.203125 144.789062 L 560.976562 143.886719 L 562.789062 142.988281 L 564.625 142.089844 L 566.472656 141.1875 L 568.324219 140.289062 L 570.164062 139.390625 L 571.976562 138.488281 L 573.757812 137.589844 L 575.496094 136.6875 L 577.179688 135.789062 L 578.804688 134.890625 L 580.355469 133.988281 L 581.832031 133.089844 L 583.230469 132.191406 L 584.539062 131.289062 L 585.761719 130.390625 L 586.894531 129.488281 L 587.941406 128.589844 L 588.898438 127.691406 L 589.769531 126.789062 L 590.5625 125.890625 L 591.285156 124.988281 L 591.9375 124.089844 L 592.535156 123.191406 L 593.082031 122.289062 L 593.59375 121.390625 L 594.074219 120.492188 L 594.535156 119.589844 L 594.988281 118.691406 L 595.441406 117.789062 L 595.902344 116.890625 L 596.375 115.992188 L 596.871094 115.089844 L 597.390625 114.191406 L 597.9375 113.292969 L 598.511719 112.390625 L 599.117188 111.492188 L 599.746094 110.589844 L 600.402344 109.691406 L 601.078125 108.792969 L 601.769531 107.890625 L 623.460938 107.890625 L 624.152344 108.792969 L 624.828125 109.691406 L 625.480469 110.589844 L 626.113281 111.492188 L 626.714844 112.390625 L 627.292969 113.292969 L 627.839844 114.191406 L 628.359375 115.089844 L 628.851562 115.992188 L 629.328125 116.890625 L 629.789062 117.789062 L 630.238281 118.691406 L 630.691406 119.589844 L 631.15625 120.492188 L 631.636719 121.390625 L 632.144531 122.289062 L 632.695312 123.191406 L 633.292969 124.089844 L 633.945312 124.988281 L 634.664062 125.890625 L 635.460938 126.789062 L 636.332031 127.691406 L 637.289062 128.589844 L 638.332031 129.488281 L 639.464844 130.390625 L 640.6875 131.289062 L 642 132.191406 L 643.394531 133.089844 L 644.875 133.988281 L 646.425781 134.890625 L 648.050781 135.789062 L 649.734375 136.6875 L 651.46875 137.589844 L 653.253906 138.488281 L 655.066406 139.390625 L 656.90625 140.289062 L 658.757812 141.1875 L 660.605469 142.089844 L 662.441406 142.988281 L 664.253906 143.886719 L 666.027344 144.789062 L 667.746094 145.6875 L 669.402344 146.589844 L 670.980469 147.488281 L 672.472656 148.386719 L 673.863281 149.289062 L 675.144531 150.1875 L 676.3125 151.085938 L 677.359375 151.988281 L 678.28125 152.886719 L 679.082031 153.789062 L 679.757812 154.6875 L 680.316406 155.585938 L 680.765625 156.488281 L 681.109375 157.386719 L 681.367188 158.285156 L 681.546875 159.1875 L 681.660156 160.085938 L 681.722656 160.988281 L 681.742188 161.886719 L 681.726562 162.785156 L 681.691406 163.6875 L 681.632812 164.585938 L 681.558594 165.484375 L 681.464844 166.386719 L 681.34375 167.285156 L 681.191406 168.1875 L 680.988281 169.085938 L 680.726562 169.984375 L 680.386719 170.886719 L 679.949219 171.785156 L 679.398438 172.6875 L 678.71875 173.585938 L 677.886719 174.484375 L 676.898438 175.386719 L 675.738281 176.285156 L 674.398438 177.183594 L 672.882812 178.085938 L 671.183594 178.984375 L 669.316406 179.886719 L 667.285156 180.785156 L 665.109375 181.683594 L 662.804688 182.585938 L 660.390625 183.484375 L 657.890625 184.382812 L 655.332031 185.285156 L 652.738281 186.183594 L 650.136719 187.085938 L 647.550781 187.984375 L 645 188.882812 L 642.507812 189.785156 L 640.09375 190.683594 L 637.773438 191.582031 L 635.5625 192.484375 L 633.464844 193.382812 L 631.488281 194.285156 L 629.640625 195.183594 L 627.925781 196.082031 L 626.335938 196.984375 Z M 598.894531 196.984375 "/>
<path style="fill:none;stroke-width:0.75;stroke-linecap:round;stroke-linejoin:round;stroke:rgb(0%,0%,0%);stroke-opacity:1;stroke-miterlimit:10;" d="M 612.613281 196.984375 L 612.613281 107.890625 "/>
<path style="fill-rule:nonzero;fill:rgb(0%,0%,0%);fill-opacity:1;stroke-width:0.75;stroke-linecap:round;stroke-linejoin:round;stroke:rgb(0%,0%,0%);stroke-opacity:1;stroke-miterlimit:10;" d="M 608.292969 174.710938 L 616.933594 174.710938 L 616.933594 145.941406 L 608.292969 145.941406 Z M 608.292969 174.710938 "/>
<path style="fill-rule:nonzero;fill:rgb(100%,100%,100%);fill-opacity:1;stroke-width:0.75;stroke-linecap:round;stroke-linejoin:round;stroke:rgb(100%,100%,100%);stroke-opacity:1;stroke-miterlimit:10;" d="M 615.316406 158.003906 C 615.316406 161.605469 609.914062 161.605469 609.914062 158.003906 C 609.914062 154.40625 615.316406 154.40625 615.316406 158.003906 "/>
<path style="fill:none;stroke-width:0.75;stroke-linecap:round;stroke-linejoin:round;stroke:rgb(0%,0%,0%);stroke-opacity:1;stroke-miterlimit:10;" d="M 266.984375 375.761719 L 612.613281 375.761719 "/>
<path style="fill:none;stroke-width:0.75;stroke-linecap:round;stroke-linejoin:round;stroke:rgb(0%,0%,0%);stroke-opacity:1;stroke-miterlimit:10;" d="M 266.984375 375.761719 L 266.984375 382.960938 "/>
<path style="fill:none;stroke-width:0.75;stroke-linecap:round;stroke-linejoin:round;stroke:rgb(0%,0%,0%);stroke-opacity:1;stroke-miterlimit:10;" d="M 439.800781 375.761719 L 439.800781 382.960938 "/>
<path style="fill:none;stroke-width:0.75;stroke-linecap:round;stroke-linejoin:round;stroke:rgb(0%,0%,0%);stroke-opacity:1;stroke-miterlimit:10;" d="M 612.613281 375.761719 L 612.613281 382.960938 "/>
<g style="fill:rgb(0%,0%,0%);fill-opacity:1;">
  <use xlink:href="#glyph0-6" x="199.984375" y="491.484375"/>
  <use xlink:href="#glyph0-7" x="209.59375" y="491.484375"/>
  <use xlink:href="#glyph0-8" x="217.603516" y="491.484375"/>
  <use xlink:href="#glyph0-9" x="221.608398" y="491.484375"/>
  <use xlink:href="#glyph0-10" x="229.618164" y="491.484375"/>
  <use xlink:href="#glyph0-11" x="236.821289" y="491.484375"/>
  <use xlink:href="#glyph0-12" x="244.831055" y="491.484375"/>
  <use xlink:href="#glyph0-13" x="252.84082" y="491.484375"/>
  <use xlink:href="#glyph0-7" x="262.450195" y="491.484375"/>
  <use xlink:href="#glyph0-8" x="270.459961" y="491.484375"/>
  <use xlink:href="#glyph0-11" x="274.464844" y="491.484375"/>
  <use xlink:href="#glyph0-14" x="282.474609" y="491.484375"/>
  <use xlink:href="#glyph0-15" x="285.672852" y="491.484375"/>
  <use xlink:href="#glyph0-16" x="289.677734" y="491.484375"/>
  <use xlink:href="#glyph0-7" x="297.6875" y="491.484375"/>
  <use xlink:href="#glyph0-17" x="305.697266" y="491.484375"/>
  <use xlink:href="#glyph0-18" x="313.707031" y="491.484375"/>
  <use xlink:href="#glyph0-8" x="321.716797" y="491.484375"/>
  <use xlink:href="#glyph0-19" x="325.72168" y="491.484375"/>
</g>
<g style="fill:rgb(0%,0%,0%);fill-opacity:1;">
  <use xlink:href="#glyph0-20" x="363.300781" y="491.484375"/>
  <use xlink:href="#glyph0-7" x="372.910156" y="491.484375"/>
  <use xlink:href="#glyph0-21" x="380.919922" y="491.484375"/>
  <use xlink:href="#glyph0-10" x="385.716797" y="491.484375"/>
  <use xlink:href="#glyph0-22" x="392.919922" y="491.484375"/>
  <use xlink:href="#glyph0-23" x="396.118164" y="491.484375"/>
  <use xlink:href="#glyph0-9" x="403.321289" y="491.484375"/>
  <use xlink:href="#glyph0-14" x="411.331055" y="491.484375"/>
  <use xlink:href="#glyph0-9" x="414.529297" y="491.484375"/>
  <use xlink:href="#glyph0-21" x="422.539062" y="491.484375"/>
  <use xlink:href="#glyph0-12" x="427.335938" y="491.484375"/>
  <use xlink:href="#glyph0-13" x="435.345703" y="491.484375"/>
  <use xlink:href="#glyph0-7" x="444.955078" y="491.484375"/>
  <use xlink:href="#glyph0-8" x="452.964844" y="491.484375"/>
  <use xlink:href="#glyph0-11" x="456.969727" y="491.484375"/>
  <use xlink:href="#glyph0-14" x="464.979492" y="491.484375"/>
  <use xlink:href="#glyph0-15" x="468.177734" y="491.484375"/>
  <use xlink:href="#glyph0-16" x="472.182617" y="491.484375"/>
  <use xlink:href="#glyph0-7" x="480.192383" y="491.484375"/>
  <use xlink:href="#glyph0-17" x="488.202148" y="491.484375"/>
  <use xlink:href="#glyph0-18" x="496.211914" y="491.484375"/>
  <use xlink:href="#glyph0-8" x="504.22168" y="491.484375"/>
  <use xlink:href="#glyph0-19" x="508.226562" y="491.484375"/>
</g>
<g style="fill:rgb(0%,0%,0%);fill-opacity:1;">
  <use xlink:href="#glyph0-20" x="540.113281" y="491.484375"/>
  <use xlink:href="#glyph0-22" x="549.722656" y="491.484375"/>
  <use xlink:href="#glyph0-21" x="552.920898" y="491.484375"/>
  <use xlink:href="#glyph0-18" x="557.717773" y="491.484375"/>
  <use xlink:href="#glyph0-22" x="565.727539" y="491.484375"/>
  <use xlink:href="#glyph0-17" x="568.925781" y="491.484375"/>
  <use xlink:href="#glyph0-22" x="576.935547" y="491.484375"/>
  <use xlink:href="#glyph0-23" x="580.133789" y="491.484375"/>
  <use xlink:href="#glyph0-11" x="587.336914" y="491.484375"/>
  <use xlink:href="#glyph0-12" x="595.34668" y="491.484375"/>
  <use xlink:href="#glyph0-13" x="603.356445" y="491.484375"/>
  <use xlink:href="#glyph0-7" x="612.96582" y="491.484375"/>
  <use xlink:href="#glyph0-8" x="620.975586" y="491.484375"/>
  <use xlink:href="#glyph0-11" x="624.980469" y="491.484375"/>
  <use xlink:href="#glyph0-14" x="632.990234" y="491.484375"/>
  <use xlink:href="#glyph0-15" x="636.188477" y="491.484375"/>
  <use xlink:href="#glyph0-16" x="640.193359" y="491.484375"/>
  <use xlink:href="#glyph0-7" x="648.203125" y="491.484375"/>
  <use xlink:href="#glyph0-17" x="656.212891" y="491.484375"/>
  <use xlink:href="#glyph0-18" x="664.222656" y="491.484375"/>
  <use xlink:href="#glyph0-8" x="672.232422" y="491.484375"/>
  <use xlink:href="#glyph0-19" x="676.237305" y="491.484375"/>
</g>
</g>
</svg>
